<svg width="19" height="18" viewBox="0 0 19 18" fill="none" xmlns="http://www.w3.org/2000/svg">
<path d="M9.99512 1.50781C11.53 1.58299 12.9884 2.21839 14.082 3.29785C15.1385 4.34109 15.6894 5.50834 15.835 6.71973C15.9793 7.92162 15.7209 9.12762 15.2285 10.2578C14.2486 12.5068 12.3011 14.5523 10.4346 15.8838C10.2167 16.0401 9.95562 16.125 9.6875 16.125C9.41964 16.1249 9.15813 16.0408 8.94043 15.8848C7.0737 14.554 5.12643 12.5079 4.14648 10.2588C3.65406 9.1285 3.39562 7.92175 3.54004 6.71973C3.68566 5.50863 4.23592 4.34183 5.29199 3.29883L5.29297 3.29785C6.46487 2.14506 8.04366 1.49942 9.6875 1.5L9.99512 1.50781ZM9.6875 5.25C9.1406 5.25008 8.61622 5.46777 8.22949 5.85449C7.84279 6.24127 7.625 6.76556 7.625 7.3125C7.625 7.85944 7.84279 8.38373 8.22949 8.77051C8.61622 9.15723 9.1406 9.37492 9.6875 9.375C10.2344 9.375 10.7587 9.15721 11.1455 8.77051C11.5323 8.38371 11.75 7.85951 11.75 7.3125C11.75 6.76549 11.5323 6.24129 11.1455 5.85449C10.8071 5.51618 10.3636 5.30668 9.8916 5.25977L9.6875 5.25Z" fill="#191F28"/>
</svg>
