<svg width="166" height="157" viewBox="0 0 166 157" fill="none" xmlns="http://www.w3.org/2000/svg">
<path d="M146.88 59.251H0C0 57.1476 0.982415 55.1648 2.65599 53.8906L63.3293 7.69614C69.3028 3.14817 77.5777 3.14816 83.5511 7.69613L144.224 53.8906C145.898 55.1648 146.88 57.1476 146.88 59.251Z" fill="#A6BEFF"/>
<path d="M146.047 58.418H1.66992L75.1101 113.498L146.047 58.418Z" fill="#BFD1FF"/>
<path d="M74.2741 105.149L18.3594 69.2639V31.7093C18.3594 29.8657 19.8539 28.3711 21.6976 28.3711H126.851C128.694 28.3711 130.189 29.8657 130.189 31.7093V69.2639L74.2741 105.149Z" fill="#FAFBFF"/>
<path d="M31.7129 70.1016H78.4476" stroke="#0046FF" stroke-opacity="0.3" stroke-width="3.8" stroke-linecap="round"/>
<path d="M31.7129 45.0664H45.9002" stroke="#0046FF" stroke-opacity="0.3" stroke-width="3.8" stroke-linecap="round"/>
<path d="M31.7129 53.4102H88.4621" stroke="#0046FF" stroke-opacity="0.3" stroke-width="3.8" stroke-linecap="round"/>
<path d="M31.7129 61.7539H78.4476" stroke="#0046FF" stroke-opacity="0.3" stroke-width="3.8" stroke-linecap="round"/>
<path d="M132.662 142.676L2.57649 58.4155C1.46598 57.6961 0 58.4932 0 59.8164V141.871C0 147.402 4.48368 151.886 10.0146 151.886H129.939C134.928 151.886 136.848 145.388 132.662 142.676Z" fill="#E6ECFF"/>
<path d="M7.95512 148.825L144.289 58.4642C145.398 57.7289 146.88 58.5244 146.88 59.8555V141.871C146.88 147.402 142.396 151.886 136.865 151.886H8.87724C7.2235 151.886 6.57668 149.739 7.95512 148.825Z" fill="#F2F6FF"/>
<path d="M143.788 113.832H142.628C130.78 113.832 121.176 123.437 121.176 135.284C121.176 147.132 130.78 156.737 142.628 156.737H143.788C155.635 156.737 165.24 147.132 165.24 135.284C165.24 123.437 155.635 113.832 143.788 113.832Z" fill="#6690FF"/>
<path d="M121.176 133.546L146.687 132.387L144.367 156.738H123.495C122.214 156.738 121.176 155.7 121.176 154.419V133.546Z" fill="#6690FF"/>
<path d="M132.65 136.322L139.729 143.401L154.804 128.906" stroke="white" stroke-width="3.47875" stroke-linecap="round" stroke-linejoin="round"/>
</svg>