<svg width="11" height="10" viewBox="0 0 11 10" fill="none" xmlns="http://www.w3.org/2000/svg">
<path d="M9.78572 5.71429H6.21429V9.28571C6.21429 9.47515 6.13903 9.65684 6.00508 9.79079C5.87112 9.92475 5.68944 10 5.5 10C5.31056 10 5.12888 9.92475 4.99492 9.79079C4.86097 9.65684 4.78571 9.47515 4.78571 9.28571V5.71429H1.21429C1.02485 5.71429 0.843164 5.63903 0.70921 5.50508C0.575255 5.37112 0.5 5.18944 0.5 5C0.5 4.81056 0.575255 4.62888 0.70921 4.49492C0.843164 4.36097 1.02485 4.28571 1.21429 4.28571H4.78571V0.714286C4.78571 0.524845 4.86097 0.343164 4.99492 0.209209C5.12888 0.0752547 5.31056 0 5.5 0C5.68944 0 5.87112 0.0752547 6.00508 0.209209C6.13903 0.343164 6.21429 0.524845 6.21429 0.714286V4.28571H9.78572C9.97516 4.28571 10.1568 4.36097 10.2908 4.49492C10.4247 4.62888 10.5 4.81056 10.5 5C10.5 5.18944 10.4247 5.37112 10.2908 5.50508C10.1568 5.63903 9.97516 5.71429 9.78572 5.71429Z" fill="#0046FF"/>
</svg>
