<svg width="24" height="24" viewBox="0 0 24 24" fill="none" xmlns="http://www.w3.org/2000/svg">
<path d="M21 12C21 13.1819 20.7672 14.3522 20.3149 15.4442C19.8626 16.5361 19.1997 17.5282 18.364 18.364C17.5282 19.1997 16.5361 19.8626 15.4442 20.3149C14.3522 20.7672 13.1819 21 12 21C10.8181 21 9.64778 20.7672 8.55585 20.3149C7.46392 19.8626 6.47177 19.1997 5.63604 18.364C4.80031 17.5282 4.13738 16.5361 3.68508 15.4442C3.23279 14.3522 3 13.1819 3 12C3 9.61305 3.94821 7.32387 5.63604 5.63604C7.32387 3.94821 9.61305 3 12 3C14.3869 3 16.6761 3.94821 18.364 5.63604C20.0518 7.32387 21 9.61305 21 12Z" stroke="currentColor" stroke-width="1.5" stroke-linecap="round" stroke-linejoin="round"/>
<path d="M17 19.5C16.683 13.313 7.317 13.313 7 19.5M14.5 9.25C14.5 9.91304 14.2366 10.5489 13.7678 11.0178C13.2989 11.4866 12.663 11.75 12 11.75C11.337 11.75 10.7011 11.4866 10.2322 11.0178C9.76339 10.5489 9.5 9.91304 9.5 9.25C9.5 8.58696 9.76339 7.95107 10.2322 7.48223C10.7011 7.01339 11.337 6.75 12 6.75C12.663 6.75 13.2989 7.01339 13.7678 7.48223C14.2366 7.95107 14.5 8.58696 14.5 9.25Z" stroke="currentColor" stroke-width="1.5" stroke-linecap="round" stroke-linejoin="round"/>
</svg>
