<svg width="24" height="24" viewBox="0 0 24 24" fill="none" xmlns="http://www.w3.org/2000/svg">
<path d="M2.25 22H21.75M4 22V6.978C4 5.235 4 4.364 4.327 3.698C4.60998 3.11849 5.06882 2.64321 5.638 2.34C6.28 2 7.12 2 8.8 2H9.2C10.88 2 11.72 2 12.362 2.34C12.9313 2.64347 13.3902 3.11912 13.673 3.699C14 4.364 14 5.235 14 6.978V22M10 6H8M10 10H8M10 14H8M19.8 22V11.444C19.8 9.139 19.002 8.296 16.875 8.296H14" stroke="currentColor" stroke-width="1.5" stroke-linecap="round" stroke-linejoin="round"/>
</svg>
