<svg width="19" height="18" viewBox="0 0 19 18" fill="none" xmlns="http://www.w3.org/2000/svg">
<path d="M9.5 10.8553L15.0125 5.34284C15.2 5.15534 15.422 5.06459 15.6785 5.07059C15.935 5.07659 16.1567 5.17359 16.3437 5.36159C16.5307 5.54959 16.6245 5.77159 16.625 6.02759C16.6255 6.28359 16.5317 6.50534 16.3437 6.69284L10.5687 12.4491C10.4187 12.5991 10.25 12.7116 10.0625 12.7866C9.875 12.8616 9.6875 12.8991 9.5 12.8991C9.3125 12.8991 9.125 12.8616 8.9375 12.7866C8.75 12.7116 8.58125 12.5991 8.43125 12.4491L2.65625 6.67409C2.46875 6.48659 2.378 6.26784 2.384 6.01784C2.39 5.76784 2.487 5.54909 2.675 5.36159C2.863 5.17409 3.085 5.08034 3.341 5.08034C3.597 5.08034 3.81875 5.17409 4.00625 5.36159L9.5 10.8553Z" fill="#191F28"/>
</svg>
