<svg width="18" height="18" viewBox="0 0 18 18" fill="none" xmlns="http://www.w3.org/2000/svg">
<path d="M9 7.14466L14.5125 12.6572C14.7 12.8447 14.922 12.9354 15.1785 12.9294C15.435 12.9234 15.6567 12.8264 15.8437 12.6384C16.0307 12.4504 16.1245 12.2284 16.125 11.9724C16.1255 11.7164 16.0317 11.4947 15.8437 11.3072L10.0687 5.55091C9.91875 5.40091 9.75 5.28841 9.5625 5.21341C9.375 5.13841 9.1875 5.10091 9 5.10091C8.8125 5.10091 8.625 5.13841 8.4375 5.21341C8.25 5.28841 8.08125 5.40091 7.93125 5.55091L2.15625 11.3259C1.96875 11.5134 1.878 11.7322 1.884 11.9822C1.89 12.2322 1.987 12.4509 2.175 12.6384C2.363 12.8259 2.585 12.9197 2.841 12.9197C3.097 12.9197 3.31875 12.8259 3.50625 12.6384L9 7.14466Z" fill="#191F28"/>
</svg>
