<svg width="18" height="18" viewBox="0 0 18 18" fill="none" xmlns="http://www.w3.org/2000/svg">
<path d="M1.6875 9C1.6875 4.96125 4.96125 1.6875 9 1.6875C13.0387 1.6875 16.3125 4.96125 16.3125 9C16.3125 13.0387 13.0387 16.3125 9 16.3125C4.96125 16.3125 1.6875 13.0387 1.6875 9ZM6.3525 6.3525C6.24716 6.45797 6.18799 6.60094 6.18799 6.75C6.18799 6.89906 6.24716 7.04203 6.3525 7.1475L8.205 9L6.3525 10.8525C6.29724 10.904 6.25291 10.9661 6.22216 11.0351C6.19142 11.1041 6.17489 11.1786 6.17356 11.2541C6.17222 11.3296 6.18612 11.4047 6.21441 11.4747C6.2427 11.5447 6.28481 11.6084 6.33822 11.6618C6.39164 11.7152 6.45526 11.7573 6.5253 11.7856C6.59534 11.8139 6.67036 11.8278 6.74589 11.8264C6.82142 11.8251 6.8959 11.8086 6.9649 11.7778C7.0339 11.7471 7.096 11.7028 7.1475 11.6475L9 9.795L10.8525 11.6475C10.9591 11.7469 11.1002 11.801 11.2459 11.7984C11.3916 11.7958 11.5307 11.7368 11.6337 11.6337C11.7368 11.5307 11.7958 11.3916 11.7984 11.2459C11.801 11.1002 11.7469 10.9591 11.6475 10.8525L9.795 9L11.6475 7.1475C11.7469 7.04087 11.801 6.89983 11.7984 6.75411C11.7958 6.60838 11.7368 6.46934 11.6337 6.36628C11.5307 6.26322 11.3916 6.20419 11.2459 6.20162C11.1002 6.19905 10.9591 6.25314 10.8525 6.3525L9 8.205L7.1475 6.3525C7.04203 6.24716 6.89906 6.18799 6.75 6.18799C6.60094 6.18799 6.45797 6.24716 6.3525 6.3525Z" fill="#191F28"/>
</svg>
