<svg width="12" height="14" viewBox="0 0 12 14" fill="none" xmlns="http://www.w3.org/2000/svg">
<path d="M6.37323 12.8801C6.26442 12.9582 6.13384 13.0003 5.99989 13.0003C5.86593 13.0003 5.73536 12.9582 5.62655 12.8801C2.4072 10.5854 -1.00949 5.86537 2.44453 2.45468C3.39277 1.5219 4.66977 0.999416 5.99989 1C7.33323 1 8.61257 1.52334 9.55525 2.45401C13.0093 5.8647 9.59258 10.5841 6.37323 12.8801Z" stroke="#191F28" stroke-width="1.00001" stroke-linecap="round" stroke-linejoin="round"/>
<path d="M6.00131 7.00067C6.35494 7.00067 6.69408 6.86019 6.94413 6.61014C7.19418 6.36009 7.33465 6.02095 7.33465 5.66733C7.33465 5.3137 7.19418 4.97456 6.94413 4.72451C6.69408 4.47446 6.35494 4.33398 6.00131 4.33398C5.64769 4.33398 5.30855 4.47446 5.0585 4.72451C4.80845 4.97456 4.66797 5.3137 4.66797 5.66733C4.66797 6.02095 4.80845 6.36009 5.0585 6.61014C5.30855 6.86019 5.64769 7.00067 6.00131 7.00067Z" stroke="#191F28" stroke-width="1.00001" stroke-linecap="round" stroke-linejoin="round"/>
</svg>
